<svg width="97" height="16" viewBox="0 0 97 16" fill="none" xmlns="http://www.w3.org/2000/svg">
<path d="M34.0248 2.62248C34.3479 2.92178 34.7351 3.07144 35.1864 3.07144C35.6377 3.07144 36.0225 2.92178 36.3408 2.62248C36.6639 2.31842 36.8254 1.95498 36.8254 1.53215C36.8254 1.11408 36.6639 0.755388 36.3408 0.456084C36.0225 0.152028 35.6377 0 35.1864 0C34.7351 0 34.3479 0.152028 34.0248 0.456084C33.7065 0.755388 33.5473 1.11408 33.5473 1.53215C33.5473 1.95498 33.7065 2.31842 34.0248 2.62248Z" fill="#181D27"/>
<path d="M11.3379 13.1053C11.8463 12.3071 12.1005 11.3759 12.1005 10.3118V0.833777H9.01477V10.0481C9.01477 10.6039 8.89124 11.098 8.6442 11.5304C8.40191 11.9627 8.05747 12.3024 7.61089 12.5494C7.16906 12.7965 6.64884 12.92 6.05023 12.92C5.45637 12.92 4.93615 12.7965 4.48957 12.5494C4.04299 12.3024 3.69617 11.9627 3.44913 11.5304C3.20683 11.098 3.08569 10.6039 3.08569 10.0481V0.833777H0V10.3118C0 11.3759 0.251796 12.3071 0.755388 13.1053C1.25898 13.9034 1.96448 14.5258 2.8719 14.9724C3.77931 15.4142 4.83876 15.6351 6.05023 15.6351C7.25695 15.6351 8.31402 15.4142 9.22143 14.9724C10.1288 14.5258 10.8343 13.9034 11.3379 13.1053Z" fill="#181D27"/>
<path d="M18.421 4.90289C17.8509 5.27346 17.4447 5.77705 17.2024 6.41367H17.0741V4.48244H14.1808V15.4284H17.2166V9.10028C17.2214 8.62995 17.3093 8.2285 17.4803 7.89594C17.6561 7.55863 17.8984 7.30208 18.2072 7.1263C18.5208 6.95052 18.8818 6.86263 19.2904 6.86263C19.8985 6.86263 20.376 7.05266 20.7228 7.43273C21.0696 7.80805 21.2406 8.33064 21.2359 9.00052V15.4284H24.2717V8.45892C24.2717 7.60851 24.1149 6.87688 23.8013 6.26402C23.4878 5.6464 23.0483 5.17132 22.483 4.83876C21.9176 4.5062 21.2549 4.33992 20.4947 4.33992C19.6823 4.33992 18.9911 4.52758 18.421 4.90289Z" fill="#181D27"/>
<path d="M27.4388 14.2455C27.1348 13.7751 26.9851 13.1813 26.9899 12.4639V6.76286H25.4933V4.48244H26.9899V1.85996H30.0257V4.48244H32.0852V6.76286H30.0257V12.0648C30.0257 12.3451 30.0684 12.5637 30.1539 12.7204C30.2395 12.8725 30.3582 12.9794 30.5102 13.0411C30.667 13.1029 30.8476 13.1338 31.0518 13.1338C31.1944 13.1338 31.3369 13.1219 31.4794 13.0981C31.622 13.0696 31.7312 13.0483 31.8072 13.034L32.2847 15.293C32.1327 15.3405 31.9189 15.3952 31.6433 15.4569C31.3678 15.5235 31.0328 15.5638 30.6385 15.5781C29.9069 15.6066 29.2655 15.5092 28.7144 15.2859C28.1681 15.0626 27.7429 14.7158 27.4388 14.2455Z" fill="#181D27"/>
<path d="M39.9035 14.2455C39.5994 13.7751 39.4498 13.1813 39.4545 12.4639V6.76286H37.958V4.48244H39.4545V1.85996H42.4903V4.48244H44.5498V6.76286H42.4903V12.0648C42.4903 12.3451 42.5331 12.5637 42.6186 12.7204C42.7041 12.8725 42.8229 12.9794 42.9749 13.0411C43.1317 13.1029 43.3122 13.1338 43.5165 13.1338C43.6591 13.1338 43.8016 13.1219 43.9441 13.0981C44.0866 13.0696 44.1959 13.0483 44.2719 13.034L44.7494 15.293C44.5974 15.3405 44.3836 15.3952 44.108 15.4569C43.8325 15.5235 43.4975 15.5638 43.1032 15.5781C42.3716 15.6066 41.7302 15.5092 41.1791 15.2859C40.6328 15.0626 40.2076 14.7158 39.9035 14.2455Z" fill="#181D27"/>
<path fill-rule="evenodd" clip-rule="evenodd" d="M56.4159 15.6422C55.29 15.6422 54.3208 15.4142 53.5084 14.9581C52.7007 14.4973 52.0784 13.8464 51.6413 13.0055C51.2042 12.1598 50.9857 11.1598 50.9857 10.0053C50.9857 8.87937 51.2042 7.89119 51.6413 7.04078C52.0784 6.19038 52.6936 5.52763 53.487 5.05255C54.2851 4.57746 55.2211 4.33992 56.2948 4.33992C57.0169 4.33992 57.6891 4.45631 58.3115 4.6891C58.9386 4.91715 59.485 5.26158 59.9506 5.72242C60.4209 6.18325 60.7867 6.76286 61.048 7.46123C61.3093 8.15486 61.4399 8.96726 61.4399 9.89843V10.7322H53.9858V10.7393C53.9858 11.2809 54.0856 11.7489 54.2851 12.1432C54.4894 12.5375 54.7769 12.8416 55.1474 13.0554C55.518 13.2692 55.9575 13.3761 56.4658 13.3761C56.8031 13.3761 57.1119 13.3286 57.3922 13.2335C57.6725 13.1385 57.9124 12.996 58.112 12.806C58.3115 12.6159 58.4635 12.3831 58.5681 12.1076L61.3758 12.2929C61.2333 12.9675 60.9411 13.5566 60.4993 14.0602C60.0622 14.559 59.4968 14.9486 58.8032 15.2289C58.1143 15.5045 57.3186 15.6422 56.4159 15.6422ZM54.2923 7.77479C54.1082 8.09912 54.007 8.45781 53.9887 8.85086H58.5823C58.5823 8.41378 58.4873 8.02659 58.2973 7.68928C58.1072 7.35196 57.8435 7.08829 57.5062 6.89826C57.1737 6.70347 56.7865 6.60608 56.3446 6.60608C55.8838 6.60608 55.4752 6.71297 55.1189 6.92676C54.7674 7.1358 54.4918 7.41848 54.2923 7.77479Z" fill="#181D27"/>
<path fill-rule="evenodd" clip-rule="evenodd" d="M64.7942 14.9652C65.4688 15.3928 66.2218 15.6066 67.0532 15.6066C67.6423 15.6066 68.1411 15.5092 68.5497 15.3144C68.963 15.1196 69.298 14.875 69.5545 14.5804C69.8158 14.2811 70.0177 13.9794 70.1603 13.6754H70.2885V15.4284H73.2816V0.833777H70.2529V6.32103H70.1603C70.0272 6.02647 69.8325 5.72717 69.5759 5.42311C69.3241 5.11431 68.9915 4.85776 68.5782 4.65347C68.1696 4.44444 67.6589 4.33992 67.0461 4.33992C66.2432 4.33992 65.5044 4.54895 64.8298 4.96703C64.1599 5.38036 63.6231 6.00509 63.2192 6.84125C62.8154 7.67265 62.6135 8.71546 62.6135 9.96969C62.6135 11.1907 62.8083 12.2216 63.1979 13.0625C63.5922 13.8987 64.1243 14.5329 64.7942 14.9652ZM69.2552 12.7917C68.9179 13.0578 68.5046 13.1908 68.0152 13.1908C67.5164 13.1908 67.096 13.0554 66.7539 12.7846C66.4166 12.509 66.1577 12.129 65.9771 11.6444C65.8013 11.155 65.7135 10.5921 65.7135 9.95544C65.7135 9.32357 65.8013 8.76772 65.9771 8.28789C66.1529 7.80805 66.4118 7.43273 66.7539 7.16193C67.096 6.89113 67.5164 6.75573 68.0152 6.75573C68.5046 6.75573 68.9203 6.88638 69.2624 7.14768C69.6044 7.40898 69.8657 7.77954 70.0462 8.25938C70.2268 8.73922 70.317 9.30457 70.317 9.95544C70.317 10.6063 70.2244 11.174 70.0391 11.6586C69.8586 12.1432 69.5973 12.5209 69.2552 12.7917Z" fill="#181D27"/>
<path d="M88.3206 11.5304C88.5677 11.098 88.6912 10.6039 88.6912 10.0481V0.833777H91.7769V10.3118C91.7769 11.3759 91.5227 12.3071 91.0144 13.1053C90.5108 13.9034 89.8053 14.5258 88.8979 14.9724C87.9904 15.4142 86.9334 15.6351 85.7267 15.6351C84.5152 15.6351 83.4557 15.4142 82.5483 14.9724C81.6409 14.5258 80.9354 13.9034 80.4318 13.1053C79.9282 12.3071 79.6764 11.3759 79.6764 10.3118V0.833777H82.7621V10.0481C82.7621 10.6039 82.8833 11.098 83.1256 11.5304C83.3726 11.9627 83.7194 12.3024 84.166 12.5494C84.6126 12.7965 85.1328 12.92 85.7267 12.92C86.3253 12.92 86.8455 12.7965 87.2873 12.5494C87.7339 12.3024 88.0783 11.9627 88.3206 11.5304Z" fill="#181D27"/>
<path d="M33.6614 4.48244V15.4284H36.6972V4.48244H33.6614Z" fill="#181D27"/>
<path d="M49.397 15.4284V0.833777H46.3612V15.4284H49.397Z" fill="#181D27"/>
<path d="M97 15.4284V0.833777H93.9143V15.4284H97Z" fill="#181D27"/>
</svg>
